<svg xmlns="http://www.w3.org/2000/svg" viewBox="0 0 1024 1024" role="img" aria-labelledby="title"><title id="title">CineWatch TV R1A white master mark</title><path d="M 845.739,781.971 A 420,420 0 0 1 582.453,927.913 L 492.269,737.781 A 228,228 0 0 0 644.822,705.355 L 845.739,781.971 Z" fill="#FFFFFF"/><path d="M 541.588,931.632 A 420,420 0 0 1 256.282,835.616 L 340.484,647.300 A 228,228 0 0 0 470.388,733.607 L 541.588,931.632 Z" fill="#FFFFFF"/><path d="M 225.980,807.946 A 420,420 0 0 1 104.501,532.517 L 298.933,475.547 A 228,228 0 0 0 328.157,628.746 L 225.980,807.946 Z" fill="#FFFFFF"/><path d="M 104.501,491.483 A 420,420 0 0 1 225.980,216.054 L 392.573,325.691 A 228,228 0 0 0 303.564,453.758 L 104.501,491.483 Z" fill="#FFFFFF"/><path d="M 256.282,188.384 A 420,420 0 0 1 541.588,92.368 L 565.158,287.746 A 228,228 0 0 0 411.381,313.755 L 256.282,188.384 Z" fill="#FFFFFF"/><path d="M 582.453,96.087 A 420,420 0 0 1 845.739,242.029 L 713.021,384.504 A 228,228 0 0 0 586.845,292.832 L 582.453,96.087 Z" fill="#FFFFFF"/></svg>
